<?xml version="1.0" encoding="UTF-8"?>
<svg width="387px" height="315px" viewBox="0 0 387 315" version="1.1" xmlns="http://www.w3.org/2000/svg" xmlns:xlink="http://www.w3.org/1999/xlink">
    <!-- Generator: Sketch 42 (36781) - http://www.bohemiancoding.com/sketch -->
    <title>features-instant</title>
    <desc>Created with Sketch.</desc>
    <defs></defs>
    <g id="Page-1" stroke="none" stroke-width="1" fill="none" fill-rule="evenodd">
        <g id="features-instant">
            <g id="mobile-phone-detailed" transform="translate(152.000000, 139.000000)">
                <polygon id="Combined-Shape" fill="#EBEBEB" points="0 -1.74630635e-21 80 6.05044853e-20 80 148 0 148"></polygon>
                <ellipse id="Oval" fill="#D3D3D3" cx="40.1928934" cy="136.35533" rx="4.88324873" ry="4.88324873"></ellipse>
                <polygon id="Rectangle-6" fill="#000000" opacity="0.200000003" points="80 0 84 0 84 152 80 148"></polygon>
                <polygon id="Rectangle-6" fill="#000000" opacity="0.200000003" points="0 148 4 152 84 152 80 148"></polygon>
                <rect id="Combined-Shape" fill="#D3D3D3" x="28.5482234" y="5.25888325" width="23.2893401" height="3.00507614" rx="1.50253807"></rect>
                <rect id="Combined-Shape" fill="#5C3091" x="6.01015228" y="13.5228426" width="68.3654822" height="111.939086"></rect>
                <rect id="Combined-Shape" fill="#370B6E" x="6.01015228" y="13.5228426" width="2.25380711" height="111.939086"></rect>
                <rect id="Combined-Shape" fill="#370B6E" x="8.26395939" y="13.5228426" width="66.1116751" height="2.25380711"></rect>
                <g id="orbit-logo/normal" transform="translate(29.299492, 59.350254)">
                    <g id="Oval-310">
                        <path d="M14.3414634,10.2439024 C12.078443,10.2439024 10.2439024,12.078443 10.2439024,14.3414634 L12.804878,14.3414634 C12.804878,13.4928308 13.4928308,12.804878 14.3414634,12.804878 L14.3414634,10.2439024 L14.3414634,10.2439024 Z" fill="#F54946" fill-rule="nonzero"></path>
                        <path d="M14.3414634,5.12195122 C9.24966743,5.12195122 5.12195122,9.24966743 5.12195122,14.3414634 L7.68292683,14.3414634 C7.68292683,10.6640552 10.6640552,7.68292683 14.3414634,7.68292683 L14.3414634,5.12195122 L14.3414634,5.12195122 Z" fill="#F54946" fill-rule="nonzero"></path>
                        <path d="M14.3414634,0 C6.42089188,0 0,6.42089188 0,14.3414634 L2.56097561,14.3414634 C2.56097561,7.83527965 7.83527965,2.56097561 14.3414634,2.56097561 L14.3414634,0 L14.3414634,0 Z" fill="#F54946" fill-rule="nonzero"></path>
                        <path d="M7.68292683,14.3414634 C7.68292683,18.0188716 10.6640552,21 14.3414634,21 C18.0188716,21 21,18.0188716 21,14.3414634 C21,10.6640552 18.0188716,7.68292683 14.3414634,7.68292683 L14.3414634,10.2439024 C16.6044839,10.2439024 18.4390244,12.078443 18.4390244,14.3414634 C18.4390244,16.6044839 16.6044839,18.4390244 14.3414634,18.4390244 C12.078443,18.4390244 10.2439024,16.6044839 10.2439024,14.3414634 L7.68292683,14.3414634 L7.68292683,14.3414634 Z" fill="#FFFFFF" fill-rule="nonzero"></path>
                    </g>
                </g>
                <polygon id="Combined-Shape" fill-opacity="0.049999997" fill="#FFFFFF" points="6.01015228 13.5228426 74.3756345 13.5228426 6.01015228 125.461929"></polygon>
            </g>
            <g id="Group-9" transform="translate(123.000000, 236.000000)">
                <rect id="Rectangle-8" fill="#000000" x="21" y="5.76041667" width="99" height="73.2395833"></rect>
                <rect id="Rectangle-8" fill="#212121" x="21" y="5.76041667" width="32" height="73.2395833"></rect>
                <rect id="Rectangle-9" fill="#000000" x="0" y="0" width="141" height="8.22916667"></rect>
                <rect id="Rectangle-9" fill="#212121" x="0" y="0" width="71" height="8.22916667"></rect>
            </g>
            <g id="Group-6" transform="translate(-24.000000, 36.000000)">
                <g id="Group-8" transform="translate(96.427858, 78.391016) rotate(-300.000000) translate(-96.427858, -78.391016) translate(56.427858, -9.108984)">
                    <g id="Group-7" transform="translate(0.000000, -0.000000)"></g>
                    <g id="wand" transform="translate(0.000000, 0.000000)">
                        <polygon id="Rectangle-7" fill="#000000" points="35 57 45 57 45 174.028857 34.6243557 168.028857"></polygon>
                        <rect id="Rectangle-7" fill="#FFFFFF" x="35" y="37" width="10" height="20"></rect>
                        <path d="M40,15 L40,-3.69482223e-13" id="Line" stroke-opacity="0.304093071" stroke="#FFFFFF" stroke-width="5" stroke-linecap="square"></path>
                        <path d="M65,38 L80,38" id="Line" stroke-opacity="0.304093071" stroke="#FFFFFF" stroke-width="5" stroke-linecap="square"></path>
                        <path d="M2.98427949e-13,38 L15,38" id="Line" stroke-opacity="0.304093071" stroke="#FFFFFF" stroke-width="5" stroke-linecap="square"></path>
                        <path d="M9.51902961,15.0190296 L24.5190296,15.0190296" id="Line" stroke-opacity="0.304093071" stroke="#FFFFFF" stroke-width="5" stroke-linecap="square" transform="translate(17.019030, 15.019030) rotate(-135.000000) translate(-17.019030, -15.019030) "></path>
                        <path d="M55.4809704,60.9809704 L70.4809704,60.9809704" id="Line" stroke-opacity="0.304093071" stroke="#FFFFFF" stroke-width="5" stroke-linecap="square" transform="translate(62.980970, 60.980970) rotate(-135.000000) translate(-62.980970, -60.980970) "></path>
                        <path d="M9.51902961,60.9809704 L24.5190296,60.9809704" id="Line" stroke-opacity="0.304093071" stroke="#FFFFFF" stroke-width="5" stroke-linecap="square" transform="translate(17.019030, 60.980970) rotate(-225.000000) translate(-17.019030, -60.980970) "></path>
                        <path d="M55.4809704,15.0190296 L70.4809704,15.0190296" id="Line" stroke-opacity="0.304093071" stroke="#FFFFFF" stroke-width="5" stroke-linecap="square" transform="translate(62.980970, 15.019030) rotate(-225.000000) translate(-62.980970, -15.019030) "></path>
                    </g>
                </g>
            </g>
        </g>
    </g>
</svg>