<?xml version="1.0" encoding="UTF-8"?>
<svg width="387px" height="315px" viewBox="0 0 387 315" version="1.1" xmlns="http://www.w3.org/2000/svg" xmlns:xlink="http://www.w3.org/1999/xlink">
    <!-- Generator: Sketch 42 (36781) - http://www.bohemiancoding.com/sketch -->
    <title>features-entertain</title>
    <desc>Created with Sketch.</desc>
    <defs>
        <linearGradient x1="-7.81888496%" y1="2.11114482%" x2="60.436782%" y2="69.8068366%" id="linearGradient-1">
            <stop stop-color="#FFFFFF" stop-opacity="0.260331748" offset="1.31337691%"></stop>
            <stop stop-color="#FFFFFF" stop-opacity="0" offset="100%"></stop>
        </linearGradient>
        <path d="M0,23.6377997 C0,21.5480635 1.56762353,19.2194933 3.50164991,18.4327926 C3.50164991,18.4327926 17.8604392,12.6564604 25.5913978,9.06329993 C33.3223565,5.47013949 40.5006512,0.832984128 40.5006512,0.832984128 C42.4511038,-0.375574429 45.3947297,-0.0876207264 47.0786117,1.47911298 L54.3848386,8.27704293 C56.9812302,10.6928026 61.4811404,11.0472171 64.4311068,9.07170526 L68.436293,6.38954155 C69.2999045,5.81120451 70,6.19144244 70,7.2423306 L70,26.8537518 C70,29.563936 67.8088921,31.7609744 65.0777359,31.7609744 L7.94473674,31.7609744 C3.5569798,31.7609744 0,28.2046171 0,23.8188485 L0,23.6377997 Z" id="path-2"></path>
        <path d="M0,23.6377997 C0,21.5480635 1.56762353,19.2194933 3.50164991,18.4327926 C3.50164991,18.4327926 17.8604392,12.6564604 25.5913978,9.06329993 C33.3223565,5.47013949 40.5006512,0.832984128 40.5006512,0.832984128 C42.4511038,-0.375574429 45.3947297,-0.0876207264 47.0786117,1.47911298 L54.3848386,8.27704293 C56.9812302,10.6928026 61.4811404,11.0472171 64.4311068,9.07170526 L68.436293,6.38954155 C69.2999045,5.81120451 70,6.19144244 70,7.2423306 L70,26.8537518 C70,29.563936 67.8088921,31.7609744 65.0777359,31.7609744 L7.94473674,31.7609744 C3.5569798,31.7609744 0,28.2046171 0,23.8188485 L0,23.6377997 Z" id="path-4"></path>
        <path d="M0,23.6377997 C0,21.5480635 1.56762353,19.2194933 3.50164991,18.4327926 C3.50164991,18.4327926 17.8604392,12.6564604 25.5913978,9.06329993 C33.3223565,5.47013949 40.5006512,0.832984128 40.5006512,0.832984128 C42.4511038,-0.375574429 45.3947297,-0.0876207264 47.0786117,1.47911298 L54.3848386,8.27704293 C56.9812302,10.6928026 61.4811404,11.0472171 64.4311068,9.07170526 L68.436293,6.38954155 C69.2999045,5.81120451 70,6.19144244 70,7.2423306 L70,26.8537518 C70,29.563936 67.8088921,31.7609744 65.0777359,31.7609744 L7.94473674,31.7609744 C3.5569798,31.7609744 0,28.2046171 0,23.8188485 L0,23.6377997 Z" id="path-6"></path>
        <path d="M0,23.6377997 C0,21.5480635 1.56762353,19.2194933 3.50164991,18.4327926 C3.50164991,18.4327926 17.8604392,12.6564604 25.5913978,9.06329993 C33.3223565,5.47013949 40.5006512,0.832984128 40.5006512,0.832984128 C42.4511038,-0.375574429 45.3947297,-0.0876207264 47.0786117,1.47911298 L54.3848386,8.27704293 C56.9812302,10.6928026 61.4811404,11.0472171 64.4311068,9.07170526 L68.436293,6.38954155 C69.2999045,5.81120451 70,6.19144244 70,7.2423306 L70,26.8537518 C70,29.563936 67.8088921,31.7609744 65.0777359,31.7609744 L7.94473674,31.7609744 C3.5569798,31.7609744 0,28.2046171 0,23.8188485 L0,23.6377997 Z" id="path-8"></path>
        <path d="M0,53.074733 C0,48.4337526 3.47557813,43.2512271 7.77844458,41.4841696 C7.77844458,41.4841696 39.8032645,28.4770359 57.0322581,20.3924249 C74.2612517,12.3078138 90.2973469,1.85041816 90.2973469,1.85041816 C94.6226673,-0.855696356 101.15056,-0.211084955 104.857545,3.27116842 L121.269331,18.6880072 C127.017559,24.0877555 136.97005,24.8867059 143.500275,20.4715437 L152.515167,14.3764685 C154.439787,13.0752101 156,13.897484 156,16.223851 L156,60.5423353 C156,66.5732058 151.11696,71.4621923 145.076899,71.4621923 L17.64864,71.4621923 C7.90156527,71.4621923 0,63.569001 0,53.816402 L0,53.074733 Z" id="path-10"></path>
    </defs>
    <g id="Page-1" stroke="none" stroke-width="1" fill="none" fill-rule="evenodd">
        <g id="features-entertain">
            <polygon id="Rectangle-11" fill="url(#linearGradient-1)" points="100.663717 18.3362832 290.663717 87.9380531 99.6902655 290.663717 -18.3362832 18.3362832"></polygon>
            <polygon id="Rectangle-11" fill="url(#linearGradient-1)" transform="translate(251.163717, 154.500000) scale(-1, 1) translate(-251.163717, -154.500000) " points="215.663717 18.3362832 405.663717 87.9380531 214.690265 290.663717 96.6637168 18.3362832"></polygon>
            <g id="Group-10" transform="translate(34.000000, 162.000000)" opacity="0.405174366">
                <g id="BG-trainer" transform="translate(250.000000, 0.000000)">
                    <g id="Rectangle-5">
                        <mask id="mask-3" fill="white">
                            <use xlink:href="#path-2"></use>
                        </mask>
                        <use id="Mask" fill="#5D5D5D" xlink:href="#path-2"></use>
                        <rect fill="#313131" mask="url(#mask-3)" x="67.3076923" y="5.69587969" width="3.44499586" height="11.370787" rx="1.72249793"></rect>
                        <rect fill="#313131" mask="url(#mask-3)" x="0.752688172" y="28.2666667" width="69.2473118" height="3.49430769"></rect>
                        <rect fill="#313131" mask="url(#mask-3)" transform="translate(30.436171, 8.533096) rotate(-26.000000) translate(-30.436171, -8.533096) " x="19.0191739" y="4.59857498" width="22.8339942" height="7.86904155" rx="3.93452077"></rect>
                    </g>
                    <ellipse id="Oval-2" fill="#313131" cx="43.2274607" cy="3.1875969" rx="1.12903226" ry="1.11627907"></ellipse>
                </g>
                <g id="BG-trainer" transform="translate(0.000000, 0.000000)">
                    <g id="Rectangle-5">
                        <mask id="mask-5" fill="white">
                            <use xlink:href="#path-4"></use>
                        </mask>
                        <use id="Mask" fill="#5D5D5D" xlink:href="#path-4"></use>
                        <rect fill="#313131" mask="url(#mask-5)" x="67.3076923" y="5.69587969" width="3.44499586" height="11.370787" rx="1.72249793"></rect>
                        <rect fill="#313131" mask="url(#mask-5)" x="0.752688172" y="28.2666667" width="69.2473118" height="3.49430769"></rect>
                        <rect fill="#313131" mask="url(#mask-5)" transform="translate(30.436171, 8.533096) rotate(-26.000000) translate(-30.436171, -8.533096) " x="19.0191739" y="4.59857498" width="22.8339942" height="7.86904155" rx="3.93452077"></rect>
                    </g>
                    <ellipse id="Oval-2" fill="#313131" cx="43.2274607" cy="3.1875969" rx="1.12903226" ry="1.11627907"></ellipse>
                </g>
                <g id="BG-trainer" transform="translate(161.000000, 0.000000)">
                    <g id="Rectangle-5">
                        <mask id="mask-7" fill="white">
                            <use xlink:href="#path-6"></use>
                        </mask>
                        <use id="Mask" fill="#5D5D5D" xlink:href="#path-6"></use>
                        <rect fill="#313131" mask="url(#mask-7)" x="67.3076923" y="5.69587969" width="3.44499586" height="11.370787" rx="1.72249793"></rect>
                        <rect fill="#313131" mask="url(#mask-7)" x="0.752688172" y="28.2666667" width="69.2473118" height="3.49430769"></rect>
                        <rect fill="#313131" mask="url(#mask-7)" transform="translate(30.436171, 8.533096) rotate(-26.000000) translate(-30.436171, -8.533096) " x="19.0191739" y="4.59857498" width="22.8339942" height="7.86904155" rx="3.93452077"></rect>
                    </g>
                    <ellipse id="Oval-2" fill="#313131" cx="43.2274607" cy="3.1875969" rx="1.12903226" ry="1.11627907"></ellipse>
                </g>
                <g id="BG-trainer" transform="translate(81.000000, 0.000000)">
                    <g id="Rectangle-5">
                        <mask id="mask-9" fill="white">
                            <use xlink:href="#path-8"></use>
                        </mask>
                        <use id="Mask" fill="#5D5D5D" xlink:href="#path-8"></use>
                        <rect fill="#313131" mask="url(#mask-9)" x="67.3076923" y="5.69587969" width="3.44499586" height="11.370787" rx="1.72249793"></rect>
                        <rect fill="#313131" mask="url(#mask-9)" x="0.752688172" y="28.2666667" width="69.2473118" height="3.49430769"></rect>
                        <rect fill="#313131" mask="url(#mask-9)" transform="translate(30.436171, 8.533096) rotate(-26.000000) translate(-30.436171, -8.533096) " x="19.0191739" y="4.59857498" width="22.8339942" height="7.86904155" rx="3.93452077"></rect>
                    </g>
                    <ellipse id="Oval-2" fill="#313131" cx="43.2274607" cy="3.1875969" rx="1.12903226" ry="1.11627907"></ellipse>
                </g>
            </g>
            <g id="Group-3" transform="translate(116.000000, 158.000000)">
                <rect id="Rectangle-10" fill="#320B62" x="2" y="72" width="152" height="7"></rect>
                <polygon id="Rectangle-10" fill="#320B62" points="91 76.1048522 96.795555 74 113 156.998782 106.991686 156.998782"></polygon>
                <polygon id="Rectangle-10" fill="#320B62" transform="translate(54.000000, 115.499391) scale(-1, 1) translate(-54.000000, -115.499391) " points="43 76.1048522 48.795555 74 65 156.998782 58.9916862 156.998782"></polygon>
                <rect id="Rectangle-10" fill="#320B62" x="75" y="75" width="6" height="82"></rect>
                <g id="Group-2">
                    <g id="Rectangle-5">
                        <mask id="mask-11" fill="white">
                            <use xlink:href="#path-10"></use>
                        </mask>
                        <use id="Mask" fill="#EBEBEB" xlink:href="#path-10"></use>
                        <rect fill="#C9C9C9" mask="url(#mask-11)" x="150" y="12.8157293" width="7.67741935" height="25.5842707" rx="3.83870968"></rect>
                        <rect fill="#C9C9C9" mask="url(#mask-11)" x="1.67741935" y="63.6" width="154.322581" height="7.86219229"></rect>
                        <rect fill="#D1D1D1" mask="url(#mask-11)" transform="translate(67.829181, 19.199465) rotate(-26.000000) translate(-67.829181, -19.199465) " x="42.3855875" y="10.3467937" width="50.8871872" height="17.7053435" rx="8.85267174"></rect>
                        <rect fill="#F9F9F9" mask="url(#mask-11)" transform="translate(140.638710, 67.607865) rotate(-90.000000) translate(-140.638710, -67.607865) " x="138.515423" y="60.5322119" width="4.24657433" height="14.1513056" rx="2.12328717"></rect>
                        <rect fill="#F9F9F9" mask="url(#mask-11)" transform="translate(123.838710, 67.607865) rotate(-90.000000) translate(-123.838710, -67.607865) " x="121.715423" y="60.5322119" width="4.24657433" height="14.1513056" rx="2.12328717"></rect>
                    </g>
                    <ellipse id="Oval-2" fill="#C7C7C7" cx="96.3354839" cy="7.17209302" rx="2.51612903" ry="2.51162791"></ellipse>
                    <path d="M77.2193548,10.4651163 L86.8645161,15.9069767" id="Line" stroke="#BCBCBC" stroke-width="4.2000001" stroke-linecap="round"></path>
                    <path d="M67.9935484,15.4883721 L77.6387097,20.9302326" id="Line" stroke="#BCBCBC" stroke-width="4.2000001" stroke-linecap="round"></path>
                    <path d="M58.7677419,20.5116279 L68.4129032,25.9534884" id="Line" stroke="#BCBCBC" stroke-width="4.2000001" stroke-linecap="round"></path>
                    <path d="M48.7032258,24.6976744 L58.3483871,30.1395349" id="Line" stroke="#BCBCBC" stroke-width="4.2000001" stroke-linecap="round"></path>
                </g>
            </g>
        </g>
    </g>
</svg>