<?xml version="1.0" encoding="UTF-8"?>
<svg width="387px" height="315px" viewBox="0 0 387 315" version="1.1" xmlns="http://www.w3.org/2000/svg" xmlns:xlink="http://www.w3.org/1999/xlink">
    <!-- Generator: Sketch 42 (36781) - http://www.bohemiancoding.com/sketch -->
    <title>features-cost</title>
    <desc>Created with Sketch.</desc>
    <defs>
        <polygon id="path-1" points="0 -1.74630635e-21 80 6.05044853e-20 80 148 0 148"></polygon>
        <filter x="-50%" y="-50%" width="200%" height="200%" filterUnits="objectBoundingBox" id="filter-2">
            <feOffset dx="5" dy="0" in="SourceAlpha" result="shadowOffsetOuter1"></feOffset>
            <feColorMatrix values="0 0 0 0 0.0117647059   0 0 0 0 0.0117647059   0 0 0 0 0.0117647059  0 0 0 0.3 0" type="matrix" in="shadowOffsetOuter1"></feColorMatrix>
        </filter>
    </defs>
    <g id="Page-1" stroke="none" stroke-width="1" fill="none" fill-rule="evenodd">
        <g id="features-cost">
            <g id="Rectangle-4" transform="translate(-104.000000, 61.000000)">
                <g id="Group-11" transform="translate(0.000000, 29.000000)">
                    <g id="Group-14" transform="translate(89.490196, 0.000000)">
                        <rect id="Rectangle-14" fill-opacity="0.200000018" fill="#FFFFFF" x="6.39215686" y="28" width="15.9803922" height="2.4"></rect>
                        <g id="Group-15" opacity="0.400000006">
                            <path d="M25.8882353,14.1777778 C25.8882353,7.77127468 23.310508,0 14.3823529,0 C5.45419784,6.73644578e-16 2.87647059,7.77127468 2.87647059,14.1777778" id="Oval-4" stroke="#000000" stroke-width="3.19999962"></path>
                            <rect id="Rectangle-13" fill="#000000" x="23.1715686" y="13.6" width="5.59313725" height="9.66666667" rx="1.27999985"></rect>
                            <path d="M23.1715686,14.7088896 C23.1715686,14.0964668 23.668088,13.6 24.2901961,13.6 L25.4088235,13.6 L25.4088235,23.2666667 L24.2901961,23.2666667 C23.6723952,23.2666667 23.1715686,22.7740055 23.1715686,22.1577771 L23.1715686,14.7088896 Z" id="Rectangle-13" fill="#191919"></path>
                        </g>
                    </g>
                    <g id="Group-14" transform="translate(89.490196, 57.600000)">
                        <rect id="Rectangle-14" fill-opacity="0.200000018" fill="#FFFFFF" x="6.39215686" y="28" width="15.9803922" height="2.4"></rect>
                        <g id="Group-15" opacity="0.400000006">
                            <path d="M25.8882353,14.1777778 C25.8882353,7.77127468 23.310508,0 14.3823529,0 C5.45419784,6.73644578e-16 2.87647059,7.77127468 2.87647059,14.1777778" id="Oval-4" stroke="#000000" stroke-width="3.19999962"></path>
                            <rect id="Rectangle-13" fill="#000000" x="23.1715686" y="13.6" width="5.59313725" height="9.66666667" rx="1.27999985"></rect>
                            <path d="M23.1715686,14.7088896 C23.1715686,14.0964668 23.668088,13.6 24.2901961,13.6 L25.4088235,13.6 L25.4088235,23.2666667 L24.2901961,23.2666667 C23.6723952,23.2666667 23.1715686,22.7740055 23.1715686,22.1577771 L23.1715686,14.7088896 Z" id="Rectangle-13" fill="#191919"></path>
                        </g>
                    </g>
                    <g id="Group-14" transform="translate(134.235294, 0.000000)">
                        <rect id="Rectangle-14" fill-opacity="0.200000018" fill="#FFFFFF" x="6.39215686" y="28" width="15.9803922" height="2.4"></rect>
                        <g id="Group-15" opacity="0.400000006">
                            <path d="M25.8882353,14.1777778 C25.8882353,7.77127468 23.310508,0 14.3823529,0 C5.45419784,6.73644578e-16 2.87647059,7.77127468 2.87647059,14.1777778" id="Oval-4" stroke="#000000" stroke-width="3.19999962"></path>
                            <rect id="Rectangle-13" fill="#000000" x="23.1715686" y="13.6" width="5.59313725" height="9.66666667" rx="1.27999985"></rect>
                            <path d="M23.1715686,14.7088896 C23.1715686,14.0964668 23.668088,13.6 24.2901961,13.6 L25.4088235,13.6 L25.4088235,23.2666667 L24.2901961,23.2666667 C23.6723952,23.2666667 23.1715686,22.7740055 23.1715686,22.1577771 L23.1715686,14.7088896 Z" id="Rectangle-13" fill="#191919"></path>
                            <rect id="Rectangle-13" fill="#000000" transform="translate(2.796569, 18.366667) rotate(-180.000000) translate(-2.796569, -18.366667) " x="-3.19744231e-14" y="13.5333333" width="5.59313725" height="9.66666667" rx="1.27999985"></rect>
                            <path d="M3.35588235,14.6422229 C3.35588235,14.0298001 3.85240173,13.5333333 4.4745098,13.5333333 L5.59313725,13.5333333 L5.59313725,23.2 L4.4745098,23.2 C3.85670892,23.2 3.35588235,22.7073388 3.35588235,22.0911104 L3.35588235,14.6422229 Z" id="Rectangle-13" fill="#191919" transform="translate(4.474510, 18.366667) rotate(-180.000000) translate(-4.474510, -18.366667) "></path>
                        </g>
                    </g>
                    <g id="Group-14" transform="translate(134.235294, 57.600000)">
                        <rect id="Rectangle-14" fill-opacity="0.200000018" fill="#FFFFFF" x="6.39215686" y="28" width="15.9803922" height="2.4"></rect>
                        <g id="Group-15" opacity="0.400000006">
                            <path d="M25.8882353,14.1777778 C25.8882353,7.77127468 23.310508,0 14.3823529,0 C5.45419784,6.73644578e-16 2.87647059,7.77127468 2.87647059,14.1777778" id="Oval-4" stroke="#000000" stroke-width="3.19999962"></path>
                            <rect id="Rectangle-13" fill="#000000" x="23.1715686" y="13.6" width="5.59313725" height="9.66666667" rx="1.27999985"></rect>
                            <path d="M23.1715686,14.7088896 C23.1715686,14.0964668 23.668088,13.6 24.2901961,13.6 L25.4088235,13.6 L25.4088235,23.2666667 L24.2901961,23.2666667 C23.6723952,23.2666667 23.1715686,22.7740055 23.1715686,22.1577771 L23.1715686,14.7088896 Z" id="Rectangle-13" fill="#191919"></path>
                            <rect id="Rectangle-13" fill="#000000" transform="translate(2.796569, 18.366667) rotate(-180.000000) translate(-2.796569, -18.366667) " x="-3.19744231e-14" y="13.5333333" width="5.59313725" height="9.66666667" rx="1.27999985"></rect>
                            <path d="M3.35588235,14.6422229 C3.35588235,14.0298001 3.85240173,13.5333333 4.4745098,13.5333333 L5.59313725,13.5333333 L5.59313725,23.2 L4.4745098,23.2 C3.85670892,23.2 3.35588235,22.7073388 3.35588235,22.0911104 L3.35588235,14.6422229 Z" id="Rectangle-13" fill="#191919" transform="translate(4.474510, 18.366667) rotate(-180.000000) translate(-4.474510, -18.366667) "></path>
                        </g>
                    </g>
                </g>
                <g id="Group-11" transform="translate(434.000000, 29.000000)">
                    <g id="Group-14" transform="translate(44.745098, 0.000000)">
                        <rect id="Rectangle-14" fill-opacity="0.200000018" fill="#FFFFFF" x="6.39215686" y="28" width="15.9803922" height="2.4"></rect>
                        <g id="Group-15" opacity="0.400000006">
                            <path d="M25.8882353,14.1777778 C25.8882353,7.77127468 23.310508,0 14.3823529,0 C5.45419784,6.73644578e-16 2.87647059,7.77127468 2.87647059,14.1777778" id="Oval-4" stroke="#000000" stroke-width="3.19999962"></path>
                            <rect id="Rectangle-13" fill="#000000" transform="translate(2.796569, 18.366667) rotate(-180.000000) translate(-2.796569, -18.366667) " x="-1.42108547e-13" y="13.5333333" width="5.59313725" height="9.66666667" rx="1.27999985"></rect>
                            <path d="M3.35588235,14.6422229 C3.35588235,14.0298001 3.85240173,13.5333333 4.4745098,13.5333333 L5.59313725,13.5333333 L5.59313725,23.2 L4.4745098,23.2 C3.85670892,23.2 3.35588235,22.7073388 3.35588235,22.0911104 L3.35588235,14.6422229 Z" id="Rectangle-13" fill="#191919" transform="translate(4.474510, 18.366667) rotate(-180.000000) translate(-4.474510, -18.366667) "></path>
                        </g>
                    </g>
                    <g id="Group-14" transform="translate(44.745098, 57.600000)">
                        <rect id="Rectangle-14" fill-opacity="0.200000018" fill="#FFFFFF" x="6.39215686" y="28" width="15.9803922" height="2.4"></rect>
                        <g id="Group-15" opacity="0.400000006">
                            <path d="M25.8882353,14.1777778 C25.8882353,7.77127468 23.310508,0 14.3823529,0 C5.45419784,6.73644578e-16 2.87647059,7.77127468 2.87647059,14.1777778" id="Oval-4" stroke="#000000" stroke-width="3.19999962"></path>
                            <rect id="Rectangle-13" fill="#000000" transform="translate(2.796569, 18.366667) rotate(-180.000000) translate(-2.796569, -18.366667) " x="-1.42108547e-13" y="13.5333333" width="5.59313725" height="9.66666667" rx="1.27999985"></rect>
                            <path d="M3.35588235,14.6422229 C3.35588235,14.0298001 3.85240173,13.5333333 4.4745098,13.5333333 L5.59313725,13.5333333 L5.59313725,23.2 L4.4745098,23.2 C3.85670892,23.2 3.35588235,22.7073388 3.35588235,22.0911104 L3.35588235,14.6422229 Z" id="Rectangle-13" fill="#191919" transform="translate(4.474510, 18.366667) rotate(-180.000000) translate(-4.474510, -18.366667) "></path>
                        </g>
                    </g>
                    <g id="Group-14">
                        <rect id="Rectangle-14" fill-opacity="0.200000018" fill="#FFFFFF" x="6.39215686" y="28" width="15.9803922" height="2.4"></rect>
                        <g id="Group-15" opacity="0.400000006">
                            <path d="M25.8882353,14.1777778 C25.8882353,7.77127468 23.310508,0 14.3823529,0 C5.45419784,6.73644578e-16 2.87647059,7.77127468 2.87647059,14.1777778" id="Oval-4" stroke="#000000" stroke-width="3.19999962"></path>
                            <rect id="Rectangle-13" fill="#000000" x="23.1715686" y="13.6" width="5.59313725" height="9.66666667" rx="1.27999985"></rect>
                            <path d="M23.1715686,14.7088896 C23.1715686,14.0964668 23.668088,13.6 24.2901961,13.6 L25.4088235,13.6 L25.4088235,23.2666667 L24.2901961,23.2666667 C23.6723952,23.2666667 23.1715686,22.7740055 23.1715686,22.1577771 L23.1715686,14.7088896 Z" id="Rectangle-13" fill="#191919"></path>
                            <rect id="Rectangle-13" fill="#000000" transform="translate(2.796569, 18.366667) rotate(-180.000000) translate(-2.796569, -18.366667) " x="8.34887715e-14" y="13.5333333" width="5.59313725" height="9.66666667" rx="1.27999985"></rect>
                            <path d="M3.35588235,14.6422229 C3.35588235,14.0298001 3.85240173,13.5333333 4.4745098,13.5333333 L5.59313725,13.5333333 L5.59313725,23.2 L4.4745098,23.2 C3.85670892,23.2 3.35588235,22.7073388 3.35588235,22.0911104 L3.35588235,14.6422229 Z" id="Rectangle-13" fill="#191919" transform="translate(4.474510, 18.366667) rotate(-180.000000) translate(-4.474510, -18.366667) "></path>
                        </g>
                    </g>
                    <g id="Group-14" transform="translate(0.000000, 57.600000)">
                        <rect id="Rectangle-14" fill-opacity="0.200000018" fill="#FFFFFF" x="6.39215686" y="28" width="15.9803922" height="2.4"></rect>
                        <g id="Group-15" opacity="0.400000006">
                            <path d="M25.8882353,14.1777778 C25.8882353,7.77127468 23.310508,0 14.3823529,0 C5.45419784,6.73644578e-16 2.87647059,7.77127468 2.87647059,14.1777778" id="Oval-4" stroke="#000000" stroke-width="3.19999962"></path>
                            <rect id="Rectangle-13" fill="#000000" x="23.1715686" y="13.6" width="5.59313725" height="9.66666667" rx="1.27999985"></rect>
                            <path d="M23.1715686,14.7088896 C23.1715686,14.0964668 23.668088,13.6 24.2901961,13.6 L25.4088235,13.6 L25.4088235,23.2666667 L24.2901961,23.2666667 C23.6723952,23.2666667 23.1715686,22.7740055 23.1715686,22.1577771 L23.1715686,14.7088896 Z" id="Rectangle-13" fill="#191919"></path>
                            <rect id="Rectangle-13" fill="#000000" transform="translate(2.796569, 18.366667) rotate(-180.000000) translate(-2.796569, -18.366667) " x="8.34887715e-14" y="13.5333333" width="5.59313725" height="9.66666667" rx="1.27999985"></rect>
                            <path d="M3.35588235,14.6422229 C3.35588235,14.0298001 3.85240173,13.5333333 4.4745098,13.5333333 L5.59313725,13.5333333 L5.59313725,23.2 L4.4745098,23.2 C3.85670892,23.2 3.35588235,22.7073388 3.35588235,22.0911104 L3.35588235,14.6422229 Z" id="Rectangle-13" fill="#191919" transform="translate(4.474510, 18.366667) rotate(-180.000000) translate(-4.474510, -18.366667) "></path>
                        </g>
                    </g>
                </g>
                <g id="Group-12" transform="translate(191.000000, 0.000000)">
                    <g id="Group-13">
                        <rect id="Rectangle-12" fill="#FFDEDD" x="0" y="0" width="107" height="150"></rect>
                        <g id="orbit-logo/purple+pink" transform="translate(47.000000, 125.000000)">
                            <g id="orbit-logo/normal">
                                <path d="M8.87804878,6.34146341 C7.47713137,6.34146341 6.34146341,7.47713137 6.34146341,8.87804878 L7.92682927,8.87804878 C7.92682927,8.35270475 8.35270475,7.92682927 8.87804878,7.92682927 L8.87804878,6.34146341 L8.87804878,6.34146341 Z" id="Oval-310" fill="#F54946" fill-rule="nonzero"></path>
                                <path d="M8.87804878,3.17073171 C5.7259846,3.17073171 3.17073171,5.7259846 3.17073171,8.87804878 L4.75609756,8.87804878 C4.75609756,6.60155798 6.60155798,4.75609756 8.87804878,4.75609756 L8.87804878,3.17073171 L8.87804878,3.17073171 Z" id="Oval-310" fill="#F54946" fill-rule="nonzero"></path>
                                <path d="M8.87804878,0 C3.97483783,0 0,3.97483783 0,8.87804878 L1.58536585,8.87804878 C1.58536585,4.85041121 4.85041121,1.58536585 8.87804878,1.58536585 L8.87804878,0 L8.87804878,0 Z" id="Oval-310" fill="#F54946" fill-rule="nonzero"></path>
                                <path d="M4.75609756,8.87804878 C4.75609756,11.1545396 6.60155798,13 8.87804878,13 C11.1545396,13 13,11.1545396 13,8.87804878 C13,6.60155798 11.1545396,4.75609756 8.87804878,4.75609756 L8.87804878,6.34146341 C10.2789662,6.34146341 11.4146341,7.47713137 11.4146341,8.87804878 C11.4146341,10.2789662 10.2789662,11.4146341 8.87804878,11.4146341 C7.47713137,11.4146341 6.34146341,10.2789662 6.34146341,8.87804878 L4.75609756,8.87804878 L4.75609756,8.87804878 Z" id="Oval-310" fill="#370B6E" fill-rule="nonzero"></path>
                            </g>
                        </g>
                        <circle id="Oval-5" fill="#FFF3F3" cx="53.5" cy="59.5" r="47.5"></circle>
                        <g id="Group-14" transform="translate(39.000000, 18.000000)">
                            <g id="Group-15" transform="translate(15.000000, 12.500000) rotate(-345.000000) translate(-15.000000, -12.500000) translate(3.000000, 3.000000)">
                                <path d="M21.4247465,11.5748264 C21.4247465,6.34451722 19.2914549,-4.28546088e-14 11.9026369,-4.28546088e-14 C4.5138189,-4.23046411e-14 2.38052738,6.34451722 2.38052738,11.5748264" id="Oval-4" stroke="#F54946" stroke-width="2"></path>
                                <rect id="Rectangle-13" fill="#F54946" x="19.1764706" y="11.103125" width="4.62880325" height="7.89192708" rx="0.767999863"></rect>
                                <path d="M19.1764706,11.8742054 C19.1764706,11.4483495 19.5160681,11.103125 19.9509543,11.103125 L21.0279919,11.103125 L21.0279919,18.9950521 L19.9509543,18.9950521 C19.5232187,18.9950521 19.1764706,18.6559458 19.1764706,18.2239716 L19.1764706,11.8742054 Z" id="Rectangle-13" fill="#F54946"></path>
                                <rect id="Rectangle-13" fill="#F54946" transform="translate(2.314402, 14.994661) rotate(-180.000000) translate(-2.314402, -14.994661) " x="-2.84217094e-13" y="11.0486979" width="4.62880325" height="7.89192708" rx="0.767999863"></rect>
                                <path d="M2.77728195,11.8197784 C2.77728195,11.3939224 3.11687949,11.0486979 3.55176564,11.0486979 L4.62880325,11.0486979 L4.62880325,18.940625 L3.55176564,18.940625 C3.12403011,18.940625 2.77728195,18.6015188 2.77728195,18.1695446 L2.77728195,11.8197784 Z" id="Rectangle-13" fill="#F54946" transform="translate(3.703043, 14.994661) rotate(-180.000000) translate(-3.703043, -14.994661) "></path>
                            </g>
                        </g>
                        <text id="15%-off" font-family="CircularStd-Bold, Circular Std" font-size="37" font-weight="bold" line-spacing="21" fill="#F54946">
                            <tspan x="18.091" y="72.111">15%</tspan>
                            <tspan x="86.874" y="88" font-size="18"></tspan>
                            <tspan x="41.134" y="109" font-size="18">off</tspan>
                        </text>
                    </g>
                </g>
                <g id="Group" transform="translate(307.000000, 40.000000)">
                    <g id="mobile-phone-detailed" transform="translate(18.000000, 92.000000)">
                        <g id="Combined-Shape">
                            <use fill="black" fill-opacity="1" filter="url(#filter-2)" xlink:href="#path-1"></use>
                            <use fill="#000000" fill-rule="evenodd" xlink:href="#path-1"></use>
                        </g>
                        <rect id="Combined-Shape" fill="#FFFFFF" opacity="0.200000018" x="28.5482234" y="5.25888325" width="23.2893401" height="3.00507614" rx="1.50253807"></rect>
                        <rect id="Combined-Shape" fill="#5C3091" x="6.01015228" y="13.5228426" width="68.3654822" height="111.939086"></rect>
                        <path d="M6.01015228,13.5228426 L8.26395939,13.5228426 L8.26395939,125.461929 L6.01015228,125.461929 L6.01015228,13.5228426 Z M8.26395939,13.5228426 L74.3756345,13.5228426 L74.3756345,15.7766497 L8.26395939,15.7766497 L8.26395939,13.5228426 Z" id="Combined-Shape" fill="#000000" opacity="0.300000012"></path>
                        <g id="orbit-logo/normal" transform="translate(29.299492, 59.350254)">
                            <g id="Oval-310">
                                <path d="M14.3414634,10.2439024 C12.078443,10.2439024 10.2439024,12.078443 10.2439024,14.3414634 L12.804878,14.3414634 C12.804878,13.4928308 13.4928308,12.804878 14.3414634,12.804878 L14.3414634,10.2439024 L14.3414634,10.2439024 Z" fill="#F54946" fill-rule="nonzero"></path>
                                <path d="M14.3414634,5.12195122 C9.24966743,5.12195122 5.12195122,9.24966743 5.12195122,14.3414634 L7.68292683,14.3414634 C7.68292683,10.6640552 10.6640552,7.68292683 14.3414634,7.68292683 L14.3414634,5.12195122 L14.3414634,5.12195122 Z" fill="#F54946" fill-rule="nonzero"></path>
                                <path d="M14.3414634,0 C6.42089188,0 0,6.42089188 0,14.3414634 L2.56097561,14.3414634 C2.56097561,7.83527965 7.83527965,2.56097561 14.3414634,2.56097561 L14.3414634,0 L14.3414634,0 Z" fill="#F54946" fill-rule="nonzero"></path>
                                <path d="M7.68292683,14.3414634 C7.68292683,18.0188716 10.6640552,21 14.3414634,21 C18.0188716,21 21,18.0188716 21,14.3414634 C21,10.6640552 18.0188716,7.68292683 14.3414634,7.68292683 L14.3414634,10.2439024 C16.6044839,10.2439024 18.4390244,12.078443 18.4390244,14.3414634 C18.4390244,16.6044839 16.6044839,18.4390244 14.3414634,18.4390244 C12.078443,18.4390244 10.2439024,16.6044839 10.2439024,14.3414634 L7.68292683,14.3414634 L7.68292683,14.3414634 Z" fill="#FFFFFF" fill-rule="nonzero"></path>
                            </g>
                        </g>
                        <polygon id="Combined-Shape" fill-opacity="0.049999997" fill="#FFFFFF" points="6.01015228 13.5228426 74.3756345 13.5228426 6.01015228 125.461929"></polygon>
                    </g>
                    <path d="M119.998155,24.8003176 L109.306501,35.4919718 C82.1442481,8.32971913 38.1055353,8.32971913 10.9432826,35.4919718 L0.251628466,24.8003176 C33.3187187,-8.26677255 86.9310647,-8.26677255 119.998155,24.8003176 Z M77.5627488,67.5521747 L66.9235047,78.1914187 C63.3979693,74.6658834 57.6819472,74.6658834 54.1564118,78.1914187 L43.5171677,67.5521747 C52.9185953,58.150747 68.1613212,58.150747 77.5627488,67.5521747 Z M98.6944887,45.9687129 L88.096008,56.5671936 C72.877222,41.3484075 48.2026945,41.3484075 32.9839085,56.5671936 L22.3854278,45.9687129 C43.4575931,24.8965475 77.6223234,24.8965475 98.6944887,45.9687129 Z" id="Combined-Shape" fill-opacity="0.300000012" fill="#FFFFFF" fill-rule="nonzero"></path>
                </g>
            </g>
        </g>
    </g>
</svg>